<?xml version="1.0" encoding="UTF-8" standalone="no"?>
<!-- Created with Inkscape (http://www.inkscape.org/) -->

<svg
   width="210mm"
   height="297mm"
   viewBox="0 0 210 297"
   version="1.1"
   id="svg1"
   xml:space="preserve"
   inkscape:version="1.3 (0e150ed, 2023-07-21)"
   sodipodi:docname="clash.svg"
   inkscape:export-filename="../../../../../Downloads/clash.svg"
   inkscape:export-xdpi="96"
   inkscape:export-ydpi="96"
   xmlns:inkscape="http://www.inkscape.org/namespaces/inkscape"
   xmlns:sodipodi="http://sodipodi.sourceforge.net/DTD/sodipodi-0.dtd"
   xmlns="http://www.w3.org/2000/svg"
   xmlns:svg="http://www.w3.org/2000/svg"><sodipodi:namedview
     id="namedview1"
     pagecolor="#ffffff"
     bordercolor="#000000"
     borderopacity="0.25"
     inkscape:showpageshadow="2"
     inkscape:pageopacity="0.0"
     inkscape:pagecheckerboard="0"
     inkscape:deskcolor="#d1d1d1"
     inkscape:document-units="mm"
     inkscape:zoom="1.1697767"
     inkscape:cx="868.9693"
     inkscape:cy="673.63287"
     inkscape:window-width="2192"
     inkscape:window-height="1387"
     inkscape:window-x="352"
     inkscape:window-y="25"
     inkscape:window-maximized="0"
     inkscape:current-layer="layer1" /><defs
     id="defs1" /><g
     inkscape:label="Lager 1"
     inkscape:groupmode="layer"
     id="layer1"><g
       stroke-width="2"
       fill="none"
       stroke-linecap="butt"
       id="g41"
       transform="matrix(0.26458333,0,0,0.26458333,-31.188798,9.2748534)"><path
         stroke="#222b36"
         vector-effect="non-scaling-stroke"
         d="m 393.38,780.96 c -29.09,2 -59.16,20.36 -73.98,45.42 -7.04,11.93 -10.77,28.74 -3.82,41.36 a 0.33,0.32 -14.9 0 1 -0.28,0.48 c -30.26,0.62 -60.54,0.19 -90.8,0.49 q -7.42,0.07 -10.14,4.94 c -3.08,5.5 -1.08,13.32 5.3,15.54 q 2.25,0.79 7.75,0.78 c 51.03,-0.08 102.06,0.24 153.09,0.15 136.83,-0.24 273.66,0.06 410.5,-0.39 q 7.27,-0.03 9.49,-0.27 c 9.67,-1.07 12.78,-12 5.86,-18.31 -2.22,-2.03 -5.71,-2.63 -8.6,-2.64 q -26.37,-0.11 -81,0.11 -4.6,0.01 -8.96,-0.17 a 0.58,0.57 -75.3 0 1 -0.49,-0.84 c 11.4,-21.8 -3.27,-46.55 -19.64,-61.24 Q 663.23,784.45 630.7,780.78 a 1.29,1.29 0 0 1 -1.15,-1.26 l -0.4,-24.07 a 1.56,1.56 0 0 1 1.56,-1.59 q 53.11,0.2 106.79,0.07 c 32.83,-0.08 59.92,-17.1 75.89,-45.26 q 1.2,-2.11 2.36,-5.01 c 0.84,-2.1 2.05,-6.85 4.17,-7.78 q 16.13,-7.06 29.86,-19.85 c 19.93,-18.57 31.51,-41.02 35.71,-67.6 9.05,-57.16 -15.5,-117.41 -63.62,-150.51 -2.07,-1.42 -2.09,-2.02 -2.1,-4.42 -0.11,-20.67 0.27,-41.33 0.22,-61.99 Q 819.77,304.76 819.54,218 c -0.09,-34.19 -28.34,-61.96 -60.13,-69.42 -7.41,-1.73 -15.95,-2.46 -23.66,-2.54 q -6.72,-0.06 -29.25,-0.04 -187.13,0.17 -374.26,0.25 c -15.46,0.01 -34.77,-0.34 -48.24,-0.03 -32.28,0.74 -60.2,16.49 -73.93,45.91 -4.56,9.77 -6.62,19.73 -6.66,30.37 q -0.21,68.25 -0.23,136.5 -0.02,44.75 0.18,89.5 0.01,3.72 -0.05,7.04 a 2.76,2.72 -16.8 0 1 -1.2,2.2 c -27.61,18.8 -46.5,45.58 -57.6,77.03 q -7.03,19.9 -8.15,40.21 -0.79,14.45 -0.35,21.02 c 0.83,12.33 4.08,27.39 9.65,40.38 11.32,26.42 30.5,47.5 56.74,59.02 3.92,1.72 6.05,10.2 8.09,13.89 q 17.63,31.75 53.17,41.7 c 10.9,3.06 20.27,3.02 30.84,2.99 q 49.48,-0.13 98.77,0.01 a 1.01,1.01 0 0 1 1.01,1.01 v 25 q 0,0.9 -0.9,0.96"
         id="path1" /><path
         stroke="#546069"
         vector-effect="non-scaling-stroke"
         d="m 229.05,659.03 c -0.28,4.33 -0.82,8.89 -0.63,12.98 q 1.3,28.61 23.3,44.84 c 8.95,6.6 18.58,10.07 29.53,10.38 25.85,0.73 51.88,0 77.75,0.01 q 171.87,0.05 343.75,0.15 15.12,0.01 30.25,-0.04 13.71,-0.06 19.89,-1.47 18.62,-4.26 30.89,-20.08 10.52,-13.55 10.96,-31.54 0.38,-14.94 -0.49,-25.26"
         id="path2" /><path
         stroke="#848a8f"
         vector-effect="non-scaling-stroke"
         d="m 794.25,649 q 0.13,-208.92 0.04,-417.84 -0.01,-13.6 -1.5,-19.69 C 786.7,186.5 764.06,172.56 739.25,172.56 q -225.38,-0.02 -450.75,-0.07 -12.28,0 -17.17,1.07 -26.48,5.83 -37.95,29.56 c -4.28,8.86 -4.48,19.07 -4.48,29.13 q 0.08,205.02 0.06,410.04 c 0,4.24 -0.25,11.1 0.09,16.74"
         id="path3" /><path
         stroke="#cdd4d7"
         vector-effect="non-scaling-stroke"
         d="m 794.25,649 q -0.15,0.58 -0.14,1.26 0.67,25.95 -18.07,43.28 c -8.73,8.07 -19.33,12.42 -30.95,13.48 q -1.81,0.16 -15.69,0.33 c -36.72,0.43 -73.43,0.24 -110.15,0.37 Q 549.12,707.97 479,707.57 c -13.19,-0.08 -29.38,0.29 -44.09,-0.02 -6.65,-0.14 -14.25,0.21 -19.66,0.14 -17.6,-0.2 -33.02,0.2 -49.07,-0.05 -8.36,-0.14 -17.12,-0.51 -25.43,-0.03 q -4.48,0.26 -19.5,0.07 -18.5,-0.23 -37,-0.53 c -28.24,-0.46 -50.82,-20.52 -55.2,-48.12"
         id="path4" /><path
         stroke="#848a8f"
         vector-effect="non-scaling-stroke"
         d="m 179.22,523.11 c -11.5,20.85 -16.27,42.46 -16.2,66.14 0.09,31 13.53,58.46 39.41,75.96 a 0.67,0.67 0 0 0 1.05,-0.56 l -0.07,-173.19 q 0,-1.52 -1.01,-0.38 -1.66,1.86 -3.54,4.01 -11.35,12.99 -19.64,28.02"
         id="path5" /><path
         stroke="#848a8f"
         vector-effect="non-scaling-stroke"
         d="m 820.44,665.49 c 17.82,-10.7 32.71,-31.22 37.08,-51.48 9.24,-42.87 -3.73,-85.79 -32.5,-118.27 q -2.16,-2.45 -4.77,-4.64 -0.35,-0.29 -0.35,0.16 l -0.01,173.92 q 0,0.64 0.55,0.31"
         id="path6" /><path
         stroke="#222b36"
         vector-effect="non-scaling-stroke"
         d="m 511.22,819.97 q 0.49,1.87 1.18,0.07 c 2.22,-5.77 3.95,-12.5 5.79,-17.84 q 4.26,-12.37 7.81,-24.98 c 2.05,-7.3 0.53,-14.82 -0.11,-22.18 A 1.14,1.14 0 0 0 524.75,754 l -25.46,0.01 q -0.44,0 -0.5,0.43 c -1.03,7.05 -1.94,13.55 -0.16,20.54 3.85,15.11 8.67,29.95 12.59,44.99"
         id="path7" /><path
         stroke="#48555e"
         vector-effect="non-scaling-stroke"
         d="m 491.04,849.92 c -1.47,-14.25 -5.91,-27.19 -9.71,-40.91"
         id="path8" /><path
         stroke="#848a8f"
         vector-effect="non-scaling-stroke"
         d="m 481.33,809.01 q -2.74,-10.48 -6.14,-20.81 c -3.49,-10.6 -3.18,-22.32 -1.85,-33.23 a 0.29,0.29 0 0 0 -0.29,-0.33 l -52.91,0.06 q -0.41,0 -0.41,0.41 v 26.92 a 0.79,0.78 6.5 0 0 0.61,0.76 q 10.26,2.39 16.08,6.26 c 7.06,4.71 11.89,14.81 5.63,21.99 q -5.01,5.75 -12.3,2.24 c -15.32,-7.35 -29.55,-9.43 -46,-4.51 -19.32,5.79 -40.31,19.9 -46.36,40.02 -4.16,13.84 7.46,19.66 19.12,19.36 q 9.62,-0.25 19.24,-0.7 57.82,-2.74 115.52,-7.12 0.57,-0.04 0.53,-0.61 l -0.76,-9.8"
         id="path9" /><path
         stroke="#c1c8cc"
         vector-effect="non-scaling-stroke"
         d="m 481.33,809.01 q -0.08,1.31 -0.89,1.7 c -29.22,14.15 -61.83,27.43 -92.2,41.62 q -1.99,0.93 0.21,0.95 c 5.03,0.06 10.98,-0.74 15.07,-0.97 q 42.22,-2.35 84.48,-3.79 2.27,-0.07 3.04,1.4"
         id="path10" /><path
         stroke="#848a8f"
         vector-effect="non-scaling-stroke"
         d="m 579.01,804.02 c -0.73,-12.94 14.01,-18.97 24.21,-21.01 a 1,1 0 0 0 0.8,-0.98 l 0.13,-27 q 0,-0.36 -0.37,-0.36 l -52.05,0.02 q -0.3,0 -0.27,0.3 c 1.83,14.38 2.01,30.29 -2.67,44.19 q -0.91,2.68 -5.75,12.61 -10.65,21.86 -9.63,47.36 0.02,0.5 0.52,0.54 c 29.47,2.83 59.02,4.84 88.57,6.63 q 21.86,1.33 43.75,1.69 7.2,0.11 11.96,-1.58 c 9.87,-3.52 9.91,-15.52 5.69,-23.39 -13.71,-25.58 -47.93,-42.54 -76.16,-35.29 -5.7,1.46 -14.06,6.44 -19.3,6.31 -5.51,-0.13 -9.13,-4.7 -9.43,-10.04"
         id="path11" /><path
         stroke="#848a8f"
         vector-effect="non-scaling-stroke"
         d="m 291.96568,277.21509 q -0.0495,159.66276 0.01,319.32551 c 0.01,27.9552 13.14108,43.87234 33.82668,43.88527 q 186.82302,0.0905 373.63613,0.0647 c 8.81017,0 15.99871,-0.69822 22.57421,-6.19359 q 14.39685,-12.05099 14.3573,-35.8168 -0.27688,-163.39959 -0.0791,-326.81213 0.01,-8.32708 -1.17668,-14.80513"
         id="path12"
         style="stroke-width:2.26145" /><path
         stroke="#cdd4d7"
         vector-effect="non-scaling-stroke"
         d="m 735.2,260.55 c 1.8,-10.83 -5.23,-21.09 -13.59,-27.12 q -12.98,-9.37 -29.11,-9.35 -179.34,0.11 -358.69,0.04 c -6.86,0 -13.38,0.4 -19.05,2.34 q -8.59,2.95 -16.76,10.25 -9.39,8.39 -10.23,21.77 -0.02,0.33 -0.23,0.39 -0.25,0.07 -0.25,0.32 l -0.26,17.1"
         id="path13" /><path
         stroke="#546069"
         vector-effect="non-scaling-stroke"
         d="M 735.2,260.55 C 729.56,245.85 716.54,240 701.5,240.02 q -94.97,0.13 -375.75,0.04 c -10.61,0 -19.35,0.38 -28.07,7.09 q -9.77,7.52 -10.13,20.84 -0.12,4.17 -0.52,8.3"
         id="path14" /></g><path
       fill="#0b1621"
       d="m 72.892993,215.90385 q 0.23812,-0.0159 0.23812,-0.254 v -6.61458 a 0.26722916,0.26722916 0 0 0 -0.26722,-0.26723 q -13.04132,-0.037 -26.1329,-0.003 c -2.79665,0.008 -5.275792,0.0185 -8.15975,-0.7911 q -9.403292,-2.63261 -14.067896,-11.03313 c -0.53975,-0.97631 -1.103312,-3.21997 -2.140479,-3.67506 -6.942667,-3.048 -12.017375,-8.62541 -15.0124576,-15.61571 -1.473729,-3.43693 -2.333625,-7.42156 -2.553229,-10.68387 q -0.116417,-1.73831 0.0926,-5.56154 0.296333,-5.37369 2.156354,-10.6389 c 2.936875,-8.32114 7.9348536,-15.40669 15.2399996,-20.38085 a 0.71966666,0.73024999 73.2 0 0 0.3175,-0.58209 q 0.01588,-0.87841 0.01323,-1.86266 -0.05292,-11.84011 -0.04763,-23.68021 0.0053,-18.057811 0.06085,-36.115626 c 0.01058,-2.815167 0.555625,-5.450417 1.762125,-8.035396 3.632729,-7.784041 11.019896,-11.951229 19.560643,-12.14702 3.56394,-0.08202 8.67305,0.01058 12.7635,0.0079 q 49.511477,-0.02117 99.022957,-0.06615 5.96106,-0.0053 7.73906,0.01058 c 2.03994,0.02117 4.29948,0.214312 6.26005,0.672041 8.4111,1.973792 15.88558,9.321271 15.90939,18.367375 q 0.0609,22.955245 0.11906,45.907846 c 0.0132,5.4663 -0.0873,10.93259 -0.0582,16.40152 0.003,0.635 0.008,0.79375 0.55562,1.16946 12.73175,8.75771 19.22727,24.69886 16.83279,39.82244 -1.11125,7.03262 -4.17512,12.97252 -9.44827,17.88583 q -3.63273,3.38402 -7.90046,5.25198 c -0.56091,0.24606 -0.88106,1.50283 -1.10331,2.05846 q -0.30692,0.76729 -0.62442,1.32556 c -4.22539,7.45067 -11.39295,11.95388 -20.07923,11.97504 q -14.20283,0.0344 -28.25485,-0.0185 a 0.41274999,0.41274999 0 0 0 -0.41275,0.42069 l 0.10583,6.36852 a 0.3413125,0.3413125 0 0 0 0.30428,0.33338 q 8.60689,0.97103 15.07066,6.77068 c 4.33123,3.88674 8.21267,10.43517 5.19642,16.20309 a 0.1508125,0.15345833 14.7 0 0 0.12964,0.22225 q 1.15359,0.0476 2.37067,0.045 14.45419,-0.0582 21.43125,-0.0291 c 0.76465,0.003 1.68804,0.1614 2.27542,0.6985 1.83091,1.66952 1.00806,4.56142 -1.55046,4.84452 q -0.58738,0.0635 -2.5109,0.0714 c -36.20558,0.11906 -72.40852,0.0397 -108.611447,0.10319 -13.50169,0.0238 -27.00338,-0.0609 -40.505068,-0.0397 q -1.455208,0.003 -2.050521,-0.20637 c -1.688041,-0.58738 -2.217208,-2.65642 -1.402291,-4.11163 q 0.719666,-1.28852 2.682875,-1.30704 c 8.006291,-0.0794 16.017875,0.0344 24.024165,-0.12965 a 0.08466667,0.0873125 75.1 0 0 0.0741,-0.127 c -1.83886,-3.33904 -0.85196,-7.78668 1.0107,-10.94316 3.92113,-6.63046 11.87715,-11.48821 19.57388,-12.01738 z M 29.414014,183.64321 c -0.07408,1.14564 -0.216959,2.35214 -0.166688,3.43429 q 0.343959,7.56973 6.164792,11.86391 c 2.368021,1.74625 4.915958,2.66436 7.813145,2.74638 6.83948,0.19314 13.72658,0 20.57135,0.003 q 45.473937,0.0132 90.950517,0.0397 4.0005,0.003 8.00365,-0.0106 3.62744,-0.0159 5.26256,-0.38894 4.92654,-1.12712 8.17298,-5.31283 2.78342,-3.58511 2.89983,-8.34496 0.10055,-3.95287 -0.12964,-6.68337 0.0344,-55.27675 0.0106,-110.553501 -0.003,-3.598337 -0.39687,-5.209649 c -1.61132,-6.606646 -7.60148,-10.294938 -14.16579,-10.294938 q -59.6318,-0.0053 -119.260937,-0.01852 -3.249084,0 -4.542896,0.283104 -7.006167,1.542521 -10.040937,7.821083 c -1.132417,2.344208 -1.185334,5.045604 -1.185334,7.70731 q 0.02117,54.244881 0.01587,108.489751 c 0,1.12183 -0.06615,2.93688 0.02381,4.42913 z M 16.229826,147.68104 c -3.042708,5.51656 -4.30477,11.23421 -4.28625,17.49954 0.02381,8.20208 3.579813,15.46754 10.427229,20.09775 a 0.17727083,0.17727083 0 0 0 0.277813,-0.14817 l -0.01852,-45.82318 q 0,-0.40217 -0.267229,-0.10054 -0.439208,0.49212 -0.936625,1.06097 -3.003021,3.43694 -5.196418,7.41363 z m 169.656124,37.67137 c 4.71487,-2.83104 8.65452,-8.26029 9.81075,-13.62075 2.44475,-11.34268 -0.9869,-22.6986 -8.59896,-31.29227 q -0.5715,-0.64823 -1.26206,-1.22766 -0.0926,-0.0767 -0.0926,0.0423 l -0.003,46.01633 q 0,0.16934 0.14552,0.082 z m -81.81446,40.87284 q 0.12964,0.49477 0.31221,0.0185 c 0.58737,-1.52665 1.0451,-3.30729 1.53193,-4.72017 q 1.12713,-3.27289 2.0664,-6.60929 c 0.5424,-1.93146 0.14023,-3.92113 -0.0291,-5.86846 a 0.301625,0.301625 0 0 0 -0.30163,-0.27517 l -6.73629,0.003 q -0.11642,0 -0.13229,0.11377 c -0.27252,1.86531 -0.51329,3.58511 -0.0423,5.43454 1.01865,3.99786 2.29394,7.92427 3.33111,11.90361 z m -5.339287,7.92427 c -0.38894,-3.77031 -1.56369,-7.19402 -2.56911,-10.82411 q -0.72496,-2.77283 -1.62454,-5.50598 c -0.92339,-2.80458 -0.84137,-5.9055 -0.48948,-8.7921 a 0.07672917,0.07672917 0 0 0 -0.0767,-0.0873 l -13.9991,0.0159 q -0.10848,0 -0.10848,0.10848 v 7.12259 a 0.20902083,0.206375 6.5 0 0 0.1614,0.20108 q 2.71462,0.63235 4.2545,1.65629 c 1.86795,1.24619 3.14589,3.91848 1.4896,5.81819 q -1.32556,1.52135 -3.25437,0.59266 c -4.05342,-1.94468 -7.81844,-2.49502 -12.17084,-1.19327 -5.11175,1.53194 -10.66535,5.26521 -12.26608,10.58863 -1.10067,3.66183 1.97379,5.20171 5.05883,5.12233 q 2.54529,-0.0661 5.09059,-0.18521 15.2982,-0.72495 30.56466,-1.88383 0.15081,-0.0106 0.14023,-0.1614 z m 23.275387,-12.14438 c -0.19314,-3.42371 3.70682,-5.01914 6.40557,-5.55889 a 0.26458333,0.26458333 0 0 0 0.21166,-0.25929 l 0.0344,-7.14375 q 0,-0.0952 -0.0979,-0.0952 l -13.77156,0.005 q -0.0794,0 -0.0714,0.0794 c 0.48419,3.80471 0.53181,8.01423 -0.70644,11.69194 q -0.24077,0.70908 -1.52135,3.3364 -2.81781,5.78379 -2.54794,12.53066 0.005,0.13229 0.13759,0.14288 c 7.79727,0.74877 15.6157,1.28058 23.43414,1.75418 q 5.78379,0.3519 11.57552,0.44715 1.905,0.0291 3.16442,-0.41804 c 2.61144,-0.93133 2.62202,-4.10633 1.50548,-6.18861 -3.62744,-6.76804 -12.68148,-11.25537 -20.15067,-9.33714 -1.50812,0.38629 -3.72004,1.70392 -5.10646,1.66952 -1.45785,-0.0344 -2.41564,-1.24354 -2.49502,-2.65642 z"
       id="path43"
       style="fill:#312e4e;fill-opacity:1;stroke-width:0.264583" /><path
       fill="#9caab0"
       d="m 163.33286,78.212039 c -1.49225,-3.88937 -4.93712,-5.43719 -8.91646,-5.4319 q -25.12747,0.0344 -99.417177,0.0106 c -2.80723,0 -5.11969,0.10054 -7.42686,1.87589 q -2.58497,1.98967 -2.68022,5.51392 -0.0318,1.10331 -0.13759,2.19604 l 0.0688,-4.52437 q 0,-0.0661 0.0661,-0.0847 0.0556,-0.0159 0.0609,-0.10319 0.22225,-3.54012 2.70669,-5.75998 2.16165,-1.931454 4.43442,-2.711975 c 1.50019,-0.513292 3.22527,-0.619125 5.04031,-0.619125 q 47.453017,0.01852 94.903397,-0.01058 4.26772,-0.0053 7.70202,2.47385 c 2.21191,1.59544 4.07193,4.31006 3.59568,7.1755 z"
       id="path45"
       style="stroke-width:0.264583" /><path
       fill="#0b1621"
       d="m 163.33286,77.517486 c 0.21167,0.796734 0.31662,1.707165 0.31486,2.731313 -0.0353,20.098001 -0.0282,40.195211 0.0212,60.291621 0.007,2.92294 0.1659,17.52618 -0.48311,30.39967 -0.16012,6.34899 -3.683,8.49652 -6.04043,8.49652 -33.32515,0.003 -72.728728,0.14329 -106.055648,0.13229 -5.53508,-0.003 -6.00998,-3.65982 -6.01262,-8.8171 -0.0106,-19.63682 -0.33147,-69.84281 -0.32287,-89.479629 0.0706,-0.65679 0.11642,-1.316755 0.13759,-1.979901 0.0635,-2.118258 0.95694,-3.77533 2.68022,-4.971228 2.30717,-1.600617 4.61963,-1.691261 7.42686,-1.691261 49.526468,0.01433 82.665528,0.01109 99.417178,-0.0095 3.97934,-0.0045 7.42421,1.39071 8.91646,4.897281 z M 96.987997,151.86782 c -0.75671,-0.33713 -1.76124,-0.91758 -3.0136,-1.74135 -2.67494,-1.75568 -5.31283,2.06339 -2.52677,3.70456 2.97656,1.75806 5.43454,3.01757 8.892643,3.4374 1.45521,0.17891 3.39725,0.18605 4.75457,0.11211 3.75973,-0.20515 6.59606,-1.37639 9.75254,-3.15591 0.98689,-0.5558 1.69333,-0.9017 1.82562,-1.83678 0.17992,-1.25712 -0.65616,-2.42598 -2.02141,-2.70031 -1.07686,-0.21945 -2.13784,0.6059 -2.97657,1.10446 -4.23862,2.51424 -10.05681,3.14875 -14.687023,1.07582 z M 85.152436,106.50608 c -1.16152,1.35253 -1.37054,2.59296 -1.37583,4.30569 -0.0123,5.1557 -0.014,10.3114 -0.005,15.4671 0.003,1.64276 0.14003,2.80526 0.4101,3.4875 1.77536,4.49414 9.51177,4.71836 11.17336,0.0644 0.21167,-0.59318 0.31926,-1.67377 0.32279,-3.24178 0.007,-5.3211 0.004,-10.64377 -0.008,-15.96805 -0.003,-1.17841 -0.12681,-2.07135 -0.37042,-2.67883 -1.5822,-3.96696 -7.31043,-4.74223 -10.14677,-1.43603 z m 40.176374,3.06422 c -0.0164,-2.83113 -2.57539,-5.11419 -5.71558,-5.09937 l -0.4498,0.002 c -3.14019,0.0148 -5.67249,2.32191 -5.65605,5.15304 l 0.10727,18.4677 c 0.0164,2.83113 2.57539,5.11418 5.71558,5.09938 l 0.44979,-0.002 c 3.14019,-0.0148 5.67249,-2.32192 5.65605,-5.15304 z M 86.143984,90.923395 c -1.56104,0.59636 -3.91583,1.04243 -3.84175,2.92692 0.0476,1.29051 1.10332,2.24946 2.56646,2.0944 0.99483,-0.10257 2.29923,-0.83489 3.30994,-1.30482 1.34673,-0.62022 3.72004,0.0978 4.35769,-1.7509 0.31573,-0.91601 0.067,-1.69842 -0.74613,-2.34726 -1.71185,-1.362079 -3.88144,-0.293412 -5.64621,0.38166 z M 123.911,91.466141 c -1.19856,-0.53195 -3.2676,-1.762833 -4.61962,-1.851097 -2.06375,-0.135967 -3.35227,2.585807 -1.7145,3.819067 0.47096,0.35782 1.21179,0.54388 1.82827,0.74664 1.17475,0.38643 2.1934,0.94463 3.25967,1.49328 1.03187,0.52956 1.85473,0.81104 2.8575,0.26478 0.70732,-0.38326 1.06274,-0.97325 1.06627,-1.76999 0.008,-1.67934 -1.29117,-2.08963 -2.67759,-2.70268 z"
       id="path46"
       style="fill:#252c44;fill-opacity:1;stroke-width:0.251226"
       sodipodi:nodetypes="cccccccccccccccccccccccccccccccccccccscccscccccccc" /><path
       fill="#fdfdfd"
       d="m 16.229826,147.68104 q 2.193396,-3.97669 5.196417,-7.41363 0.497417,-0.56885 0.936625,-1.06097 0.267229,-0.30163 0.267229,0.10054 l 0.01852,45.82318 a 0.17727083,0.17727083 0 0 1 -0.277813,0.14817 c -6.847416,-4.63021 -10.403416,-11.89567 -10.427229,-20.09775 -0.01852,-6.26533 1.243542,-11.98298 4.286251,-17.49954 z"
       id="path54"
       style="stroke-width:0.264583" /><path
       fill="#fdfdfd"
       d="m 195.6967,171.73166 c -1.15623,5.36046 -5.09588,10.78971 -9.81075,13.62075 q -0.14552,0.0873 -0.14552,-0.082 l 0.003,-46.01633 q 0,-0.11906 0.0926,-0.0423 0.69056,0.57943 1.26206,1.22766 c 7.61206,8.59367 11.04371,19.94959 8.59896,31.29227 z"
       id="path55"
       style="stroke-width:0.264583" /><path
       fill="#9caab0"
       d="m 178.95651,180.98944 q 0.23019,2.7305 0.12964,6.68337 -0.11641,4.75985 -2.89983,8.34496 -3.24644,4.18571 -8.17298,5.31283 -1.63512,0.37306 -5.26256,0.38894 -4.00315,0.0132 -8.00365,0.0106 -45.47658,-0.0265 -90.950517,-0.0397 c -6.84477,-0.003 -13.73187,0.1905 -20.57135,-0.003 -2.897187,-0.082 -5.445124,-1.00013 -7.813145,-2.74638 q -5.820833,-4.29418 -6.164792,-11.86391 c -0.05027,-1.08215 0.0926,-2.28865 0.166688,-3.43429 1.158875,7.3025 7.133166,12.61004 14.604999,12.73175 q 4.89479,0.0794 9.78958,0.14022 3.97405,0.0503 5.15938,-0.0185 c 2.19869,-0.127 4.51644,-0.0291 6.72835,0.008 4.24657,0.0661 8.32644,-0.0397 12.98311,0.0132 1.43139,0.0185 3.44223,-0.0741 5.20171,-0.037 3.89202,0.082 8.17562,-0.0159 11.66547,0.005 q 18.552587,0.10583 37.107817,0.0397 c 9.7155,-0.0344 19.42835,0.0159 29.14385,-0.0979 q 3.67242,-0.045 4.15131,-0.0873 c 3.07446,-0.28046 5.87904,-1.4314 8.18886,-3.56658 q 4.95829,-4.58523 4.78102,-11.45117 -0.003,-0.17992 0.037,-0.33337 z"
       id="path66"
       style="stroke-width:0.264583" /><path
       fill="#fdfdfd"
       d="m 98.933323,236.74243 c 0.007,0.10055 -0.0397,0.15435 -0.14023,0.1614 -10.17764,0.77259 -20.36586,1.40053 -30.56466,1.88383 -1.69687,0.0794 -3.39373,0.14112 -5.09059,0.18521 -3.08504,0.0794 -6.1595,-1.4605 -5.05883,-5.12233 1.60073,-5.32342 7.15433,-9.05669 12.26608,-10.58863 4.3524,-1.30175 8.11742,-0.75141 12.17084,1.19327 1.28587,0.61913 2.37066,0.42157 3.25437,-0.59266 1.65629,-1.89971 0.37835,-4.572 -1.4896,-5.81819 -1.02659,-0.68263 -2.44475,-1.23472 -4.2545,-1.65629 -0.0944,-0.0221 -0.16123,-0.10533 -0.1614,-0.20108 v -7.12259 c 0,-0.0723 0.0362,-0.10848 0.10848,-0.10848 l 13.9991,-0.0159 c 0.0469,-4.3e-4 0.0832,0.0409 0.0767,0.0873 -0.35189,2.8866 -0.43391,5.98752 0.48948,8.7921 l 1.355504,5.83655 z"
       id="path68"
       style="stroke-width:0.264583"
       sodipodi:nodetypes="cccccccccccscccccc" /><path
       fill="#fdfdfd"
       d="m 128.41316,216.44625 c -2.69875,0.53975 -6.59871,2.13518 -6.40557,5.55889 0.0794,1.41288 1.03717,2.62202 2.49502,2.65642 1.38642,0.0344 3.59834,-1.28323 5.10646,-1.66952 7.46919,-1.91823 16.52323,2.5691 20.15067,9.33714 1.11654,2.08228 1.10596,5.25728 -1.50548,6.18861 q -1.25942,0.44714 -3.16442,0.41804 -5.79173,-0.0953 -11.57552,-0.44715 c -7.81844,-0.4736 -15.63687,-1.00541 -23.43414,-1.75418 q -0.1323,-0.0106 -0.13759,-0.14288 -0.26987,-6.74687 2.54794,-12.53066 1.28058,-2.62732 1.52135,-3.3364 c 1.23825,-3.67771 1.19063,-7.88723 0.70644,-11.69194 q -0.008,-0.0794 0.0714,-0.0794 l 13.77156,-0.005 q 0.0979,0 0.0979,0.0952 l -0.0344,7.14375 a 0.26458333,0.26458333 0 0 1 -0.21166,0.25929 z"
       id="path69"
       style="stroke-width:0.264583" /><path
       style="fill:#f9f9f9;stroke-width:1.70973"
       d="m 286.37946,739.45741 -134.21366,-0.85486 -8.7326,-4.60719 c -4.80293,-2.53394 -12.25014,-8.51951 -16.54935,-13.30127 -14.27028,-15.87199 -13.29359,3.2084 -12.78443,-249.75278 l 0.45236,-224.74046 4.2582,-8.33795 c 5.22645,-10.2339 16.34931,-20.28999 27.03918,-24.44591 7.60666,-2.95726 20.18544,-3.14586 240.5494,-3.60665 162.45118,-0.3397 235.90579,0.0772 243.74821,1.38356 19.95064,3.32318 35.27396,15.26289 41.2609,32.14991 1.78403,5.03207 2.22521,50.85275 2.22521,231.10574 V 699.2788 l -4.02198,8.89365 c -5.36865,11.87155 -19.19083,24.82694 -30.21833,28.32342 -7.27197,2.30571 -23.72462,2.77708 -113.65117,3.2562 -57.83156,0.30811 -165.54443,0.17552 -239.36194,-0.29466 z m 313.2299,-61.61863 c 7.56309,-2.10052 11.8435,-7.14602 17.1053,-20.16278 l 3.91665,-9.68904 V 470.17523 c 0,-97.79645 -0.62841,-180.7849 -1.39646,-184.41878 -0.94794,-4.48494 -3.98756,-9.19816 -9.46367,-14.67426 -14.75194,-14.75195 0.73707,-13.77309 -217.26571,-13.73056 -189.85689,0.037 -192.57163,0.0847 -200.16106,3.51619 -4.23157,1.91325 -10.25989,5.93559 -13.39626,8.93852 -11.74021,11.24074 -11.11345,3.78937 -10.81359,128.56031 0.41914,174.40405 1.97318,263.93631 4.69724,270.6201 4.50709,11.05869 -7.17512,10.49049 216.98621,10.55372 134.37655,0.0379 205.60816,-0.53988 209.79135,-1.70169 z"
       id="path15"
       transform="scale(0.26458333)" /><path
       style="fill:#f9f9f9;stroke-width:1.70973"
       d="m 506.50695,902.02706 c -3.7614,-0.3091 -23.2523,-1.33441 -44.88036,-2.80089 -21.62806,-1.46648 -40.67015,-4.76926 -42.31577,-5.24985 -6.41779,-1.87428 -3.62906,-24.61943 7.10458,-48.67063 5.93144,-13.29076 7.75107,-17.5418 8.38917,-35.32199 l 0.69029,-19.23444 h 24.60653 24.60653 v 13.67782 c 0,11.17552 -0.48164,13.67783 -2.6327,13.67783 -4.32419,0 -15.75259,6.51365 -18.62592,10.6159 -1.47266,2.10252 -2.67757,5.89679 -2.67757,8.4317 0,12.56231 5.58352,14.82354 22.44328,9.08917 14.80878,-5.03679 25.0301,-5.2942 38.89339,-0.97946 14.52737,4.52142 27.43655,9.67115 37.55915,20.74689 13.45008,14.71652 12.19133,32.85035 1.28172,37.8211 -3.82635,1.7434 -36.96961,-0.3673 -54.44232,-1.80315 z"
       id="path16"
       transform="scale(0.26458333)"
       sodipodi:nodetypes="ssssscccsssssssss" /><path
       style="fill:#ececec;stroke-width:1.70973"
       d="m 227.39384,900.05063 c -8.54713,-5.03316 -9.72848,-11.41421 -4.14086,-22.36684 8.85416,-17.35559 34.19961,-33.29013 55.81023,-35.08758 9.69823,-0.80665 13.7051,-0.23281 24.54207,3.51475 15.54281,5.37489 16.04647,5.40106 20.3882,1.05932 4.13431,-4.1343 4.4945,-13.09185 0.74188,-18.44947 -2.87333,-4.10225 -14.30172,-10.6159 -18.62591,-10.6159 -2.15107,0 -2.63271,-2.50231 -2.63271,-13.67783 v -13.67782 h 25.26598 25.26599 l 0.0204,12.39553 c 0.013,7.91101 1.48128,17.4236 4.05838,26.29349 8.66919,43.08056 16.51817,63.58223 15.06752,64.82205 -1.00559,0.85941 -84.89417,5.96991 -112.42146,6.84872 -21.42378,0.68395 -30.89127,0.38339 -33.3397,-1.05842 z"
       id="path17"
       transform="scale(0.26458333)"
       sodipodi:nodetypes="sssssssscccscssss" /><path
       style="fill:#ececec;stroke-width:2.41792"
       d="m 330.90936,500.62144 c -11.43087,-4.8148 -12.95279,-10.73388 -12.95279,-50.3762 0,-37.29743 1.31964,-44.35533 9.46215,-50.60695 6.40809,-4.91998 18.66354,-3.63254 26.06734,2.73838 l 6.78412,5.83768 v 41.24623 c 0,38.04671 -0.37578,41.62189 -4.84424,46.08885 -5.74161,5.73968 -17.26944,8.12457 -24.51658,5.07201 z"
       id="path18"
       transform="scale(0.26458333)" /><path
       style="fill:#ececec;stroke-width:2.41792"
       d="m 440.69676,499.24041 c -3.6402,-2.02891 -7.18973,-6.10956 -7.88784,-9.06812 -0.69811,-2.95856 -1.52799,-22.41281 -1.84417,-43.23167 -0.56343,-37.0989 -0.45818,-37.97739 5.28693,-44.12705 7.98302,-8.54518 22.15368,-8.70291 30.51691,-0.33969 5.83221,5.83221 5.9349,6.6407 5.9349,46.72798 0,39.43049 -0.1856,40.96744 -5.55657,46.0132 -7.4073,6.9588 -18.23152,8.6061 -26.45016,4.02535 z"
       id="path19"
       transform="scale(0.26458333)" /><path
       style="fill:#ececec;stroke-width:0.854864"
       d="m 462.0299,360.22969 c -3.51305,-1.69814 -8.4848,-3.81998 -11.04834,-4.71521 -2.56354,-0.89522 -5.54488,-2.45806 -6.6252,-3.47297 -4.58354,-4.30601 -0.52317,-12.66048 6.15315,-12.66048 2.83957,0 18.86214,6.67601 24.11056,10.04597 2.53288,1.62634 3.97768,6.14748 2.88388,9.02439 -0.87902,2.31199 -4.82805,4.86583 -7.52411,4.86583 -0.85942,0 -4.43689,-1.38939 -7.94994,-3.08753 z"
       id="path20"
       transform="scale(0.26458333)" /><path
       style="fill:#ececec;stroke-width:0.854864"
       d="m 462.79548,360.16043 c -12.12924,-5.08356 -17.39225,-7.6707 -18.62422,-9.15514 -1.62457,-1.95747 -1.35639,-6.30864 0.51703,-8.38884 2.84685,-3.16107 5.00713,-3.38308 11.35137,-1.16653 3.23419,1.12996 6.10285,1.83198 6.37479,1.56004 0.27194,-0.27194 0.49443,-0.0229 0.49443,0.55336 0,0.57629 0.38469,0.81004 0.85486,0.51946 0.47018,-0.29059 0.85487,-0.17321 0.85487,0.26084 0,0.43405 1.7199,1.44601 3.82199,2.24881 7.73422,2.95372 10.96957,8.4046 7.73204,13.02683 -2.59549,3.70558 -5.54249,3.8248 -13.37716,0.54117 z"
       id="path21"
       transform="scale(0.26458333)" /><path
       style="fill:#ececec;stroke-width:0.854864"
       d="m 315.68004,361.17204 c -4.43731,-2.48852 -5.38582,-7.36474 -2.15865,-11.09749 2.28425,-2.64212 21.24917,-9.83866 25.92764,-9.83866 8.63965,0 13.56744,8.85138 7.55901,13.57761 -1.14998,0.90458 -4.2186,1.83214 -7.16333,2.1653 -2.83335,0.32056 -7.61565,1.73593 -10.62733,3.14527 -6.82551,3.19403 -10.50202,3.75023 -13.53734,2.04797 z"
       id="path22"
       transform="scale(0.26458333)" /><path
       style="fill:#ececec;stroke-width:0.854864"
       d="m 381.6968,594.05285 c -9.27679,-0.83009 -17.10733,-3.28249 -27.55302,-8.62916 -12.25622,-6.2734 -15.04054,-10.51847 -10.46532,-15.9558 3.78836,-4.50221 6.17483,-4.33904 15.64445,1.06966 10.61722,6.06416 18.57508,8.20541 30.49509,8.20541 11.47678,0 19.66797,-2.11153 31.8284,-8.20475 6.81054,-3.41256 10.18728,-4.66432 11.61548,-4.30587 5.69083,1.42831 9.01845,7.80741 6.26488,12.00989 -2.06693,3.15452 -20.95185,12.13664 -29.61945,14.0877 -8.86421,1.99533 -18.55318,2.58707 -28.21051,1.72292 z"
       id="path23"
       transform="scale(0.26458333)" /></g></svg>
